<svg width="38" height="38" viewBox="0 0 38 38" fill="none" xmlns="http://www.w3.org/2000/svg">
<rect width="38" height="38" rx="8" fill="#5AE280"/>
<path d="M19.1288 22.8606C19.2775 22.8606 19.3981 22.74 19.3981 22.5913V21.0285C19.3981 19.9694 18.5395 19.1109 17.4805 19.1109H12.6509C10.2143 19.1109 8.23899 17.1356 8.23899 14.699V13.744C8.23899 12.2177 9.47631 10.9804 11.0026 10.9804H32.9947C32.9735 10.8381 32.8888 10.7116 32.762 10.6384L19.9925 3.26592C19.3784 2.91136 18.6218 2.91136 18.0076 3.26592L6.28529 10.0088C5.49015 10.4662 5 11.3136 5 12.2309V22.8606H19.1288Z" fill="#1B1B1C"/>
<path d="M25.7726 13.4756H11.0026C10.8539 13.4756 10.7334 13.5961 10.7334 13.7449V14.6998C10.7334 15.7589 11.5919 16.6174 12.6509 16.6174H17.4805C19.9171 16.6174 21.8924 18.5927 21.8924 21.0293V22.5922C21.8924 24.1185 20.6551 25.3558 19.1288 25.3558H5V26.6677C5 26.8378 5.09077 26.9951 5.23813 27.0801L17.5634 34.1961C18.4524 34.7094 19.5477 34.7094 20.4368 34.1961L25.7726 31.1155V13.4756Z" fill="#1B1B1C"/>
<path d="M28.2666 13.4756V29.6754L32.7617 27.0801L32.9998 26.6677V13.4756H28.2666Z" fill="#1B1B1C"/>
<path fill-rule="evenodd" clip-rule="evenodd" d="M28.8102 27.275C26.1012 27.275 23.9041 25.078 23.9041 22.3689C23.9041 25.078 21.7073 27.275 18.998 27.275C21.7073 27.275 23.9041 29.4719 23.9041 32.181C23.9041 29.4719 26.1012 27.275 28.8102 27.275Z" fill="url(#paint0_radial_16_3164)"/>
<path d="M19.1288 22.8606C19.2775 22.8606 19.3981 22.74 19.3981 22.5913V21.0285C19.3981 19.9694 18.5395 19.1109 17.4805 19.1109H12.6509C10.2143 19.1109 8.23899 17.1356 8.23899 14.699V13.744C8.23899 12.2177 9.47631 10.9804 11.0026 10.9804H32.9947C32.9735 10.8381 32.8888 10.7116 32.762 10.6384L19.9925 3.26592C19.3784 2.91136 18.6218 2.91136 18.0076 3.26592L6.28529 10.0088C5.49015 10.4662 5 11.3136 5 12.2309V22.8606H19.1288Z" fill="#1B1B1C"/>
<path d="M25.7726 13.4756H11.0026C10.8539 13.4756 10.7334 13.5961 10.7334 13.7449V14.6998C10.7334 15.7589 11.5919 16.6174 12.6509 16.6174H17.4805C19.9171 16.6174 21.8924 18.5927 21.8924 21.0293V22.5922C21.8924 24.1185 20.6551 25.3558 19.1288 25.3558H5V26.6677C5 26.8378 5.09077 26.9951 5.23813 27.0801L17.5634 34.1961C18.4524 34.7094 19.5477 34.7094 20.4368 34.1961L25.7726 31.1155V13.4756Z" fill="#1B1B1C"/>
<path d="M28.2666 13.4756V29.6754L32.7617 27.0801L32.9998 26.6677V13.4756H28.2666Z" fill="#1B1B1C"/>
<path fill-rule="evenodd" clip-rule="evenodd" d="M28.8102 27.275C26.1012 27.275 23.9041 25.078 23.9041 22.3689C23.9041 25.078 21.7073 27.275 18.998 27.275C21.7073 27.275 23.9041 29.4719 23.9041 32.181C23.9041 29.4719 26.1012 27.275 28.8102 27.275Z" fill="url(#paint1_radial_16_3164)"/>
<path fill-rule="evenodd" clip-rule="evenodd" d="M28.8092 27.2763C26.1002 27.2763 23.9031 25.0794 23.9031 22.3702C23.9031 25.0794 21.7063 27.2763 18.9971 27.2763C21.7063 27.2763 23.9031 29.4733 23.9031 32.1824C23.9031 29.4733 26.1002 27.2763 28.8092 27.2763Z" fill="#5AE280"/>
<defs>
<radialGradient id="paint0_radial_16_3164" cx="0" cy="0" r="1" gradientUnits="userSpaceOnUse" gradientTransform="translate(24.6827 25.9633) scale(3.19554)">
<stop offset="0.0018" stop-color="#F1D6A3"/>
<stop offset="1" stop-color="#F2A900"/>
</radialGradient>
<radialGradient id="paint1_radial_16_3164" cx="0" cy="0" r="1" gradientUnits="userSpaceOnUse" gradientTransform="translate(24.6827 25.9633) scale(3.19554)">
<stop offset="0.0018" stop-color="#F1D6A3"/>
<stop offset="1" stop-color="#F2A900"/>
</radialGradient>
</defs>
</svg>
